<svg id="Layer_1" data-name="Layer 1" xmlns="http://www.w3.org/2000/svg" viewBox="0 0 170 34"><defs><style>.cls-1{fill:#fff;}</style></defs><title>buttons-light1</title><g id="Page-1"><g id="buttons-light"><path id="Scroll" class="cls-1" d="M170,0H136V34h34ZM153,17.59l4.12-4.12,1.41,1.41L153,20.41V17.59Zm0,0-4.12-4.12-1.41,1.41L153,20.41V17.59Z"/><path id="Close" class="cls-1" d="M119,18.41l-4.95,4.95-1.41-1.41L117.59,17l-4.95-4.95,1.41-1.41L119,15.59l4.95-4.95,1.41,1.41L120.41,17l4.95,4.95-1.41,1.41ZM102,0V34h34V0Z"/><path class="cls-1" d="M60.83,24.75,56.5,20.42a8.64,8.64,0,0,0,1.56-5,8.73,8.73,0,0,0-.7-3.45A8.7,8.7,0,0,0,52.63,7.2a8.86,8.86,0,0,0-6.9,0A8.7,8.7,0,0,0,41,11.93a8.85,8.85,0,0,0,0,6.9,8.7,8.7,0,0,0,4.73,4.73,8.87,8.87,0,0,0,8.49-.86L58.54,27a1.5,1.5,0,0,0,1.14.48,1.62,1.62,0,0,0,1.15-2.75m-7.65-5.37a5.65,5.65,0,0,1-9.65-4,5.65,5.65,0,0,1,11.31,0,5.45,5.45,0,0,1-1.66,4"/><path id="Logo" class="cls-1" d="M0,0V34H34V0ZM7.3,6.3C10.57,4.55,13.78,2.7,17,.91c3.25,1.84,6.55,3.62,9.8,5.46V11.9c-3.24,1.87-6.54,3.68-9.82,5.49-3.21-1.84-6.46-3.62-9.71-5.4C7.27,10.08,7.27,8.21,7.3,6.3Zm5.09,2.9C14,10,15.51,10.89,17,11.78c1.56-.89,3.14-1.75,4.7-2.64-1.57-.85-3.12-1.73-4.67-2.6C15.53,7.42,13.88,8.21,12.39,9.2ZM1.06,16.44c1.63-.82,3.2-1.75,4.81-2.63,3.29,1.79,6.58,3.63,9.83,5.51,0,3.65,0,7.29,0,10.94-1.65.94-3.3,1.87-5,2.74C7.49,31.16,4.22,29.39,1,27.54,1.05,23.83.89,20.13,1.06,16.44Zm5.17,3c0,1.78,0,3.57,0,5.35,1.51.81,3,1.67,4.49,2.47V22.07A47.53,47.53,0,0,1,6.22,19.49Zm12.21-.26c3.26-1.79,6.51-3.62,9.76-5.42L33,16.46c0,3.71,0,7.42,0,11.14-3.23,1.78-6.45,3.59-9.71,5.37q-2.45-1.34-4.88-2.73C18.41,26.57,18.41,22.89,18.43,19.23Zm4.95,2.9v5.24c1.58-.88,3.15-1.77,4.73-2.64V19.47C26.55,20.36,24.95,21.19,23.38,22.13Z"/></g></g></svg>