<?xml version="1.0" encoding="utf-8"?>
<!-- Generator: Adobe Illustrator 23.0.3, SVG Export Plug-In . SVG Version: 6.00 Build 0)  -->
<svg version="1.1" id="Layer_1" xmlns:sketch="http://www.bohemiancoding.com/sketch/ns"
	 xmlns="http://www.w3.org/2000/svg" xmlns:xlink="http://www.w3.org/1999/xlink" x="0px" y="0px" viewBox="0 0 252 18"
	 style="enable-background:new 0 0 252 18;" xml:space="preserve">
<style type="text/css">
	.st0{fill:#4B505A;}
	.st1{fill:#366499;}
	.st2{fill:#34C5EF;}
	.st3{fill:#D9D9D9;}
	.st4{fill:#006391;}
</style>
<title>icons</title>
<g sketch:type="MSArtboardGroup">
	<g sketch:type="MSLayerGroup">
		<path sketch:type="MSShapeGroup" class="st0" d="M243.9,2.4c0,0-0.7-0.6-1.2-1.7c-0.5-1.2-1.5-0.7-1.5,0.6
			c0,1.3-0.1,11.5-0.1,11.5s-5.6-1.2-5,3.9c0,0,3.5,3.7,6.5-2.1l-0.1-8.7c0,0,6.1,2.2,3,5.9c0,0,0.4,1.6,1.6,0.4
			C248.3,10.9,251.8,6.8,243.9,2.4L243.9,2.4z"/>
		<path sketch:type="MSShapeGroup" class="st0" d="M233.8,5l0-0.2l0-0.1c-0.2-0.7-0.9-1.2-1.6-1.2h0.1c0,0-3.1-0.5-7.2-0.5
			c-4.1,0-7.2,0.5-7.2,0.5h0.1c-0.8,0-1.4,0.5-1.6,1.2l0,0.1l0,0.2c-0.1,0.8-0.3,2.5-0.3,4.5c0,2,0.2,3.6,0.3,4.5l0,0.2l0,0.1
			c0.2,0.7,0.9,1.2,1.6,1.2h-0.1c0,0,3.1,0.5,7.2,0.5c4.1,0,7.2-0.5,7.2-0.5h-0.1c0.8,0,1.4-0.5,1.6-1.2l0-0.1l0-0.2
			c0.1-0.8,0.3-2.5,0.3-4.5C234.1,7.5,233.9,5.9,233.8,5L233.8,5z M227.8,9.9l-3.7,2.8c-0.1,0.1-0.2,0.1-0.3,0.1l-0.2-0.1
			c-0.1-0.1-0.2-0.2-0.2-0.4V6.8c0-0.2,0.1-0.3,0.2-0.4c0.1-0.1,0.3-0.1,0.5,0l3.7,2.8c0.1,0.1,0.2,0.2,0.2,0.4S227.9,9.8,227.8,9.9
			z"/>
		<path sketch:type="MSShapeGroup" class="st0" d="M211.8,5L211.8,5c-0.1,0-0.9,0-2,0.5l0,0l-0.2,0.1l0,0c-0.2,0.1-0.5,0.3-0.7,0.5
			l0,0l-0.2,0.1l0,0c-0.3,0.2-0.5,0.4-0.8,0.7l0,0l-0.2,0.2l0,0c-0.2,0.2-0.4,0.4-0.5,0.7c-0.3,0.4-0.6,0.9-0.8,1.4l-0.1,0.2l0,0
			l-0.1,0.1L206,9.7l-0.1,0.2l-0.1,0.2l-0.1,0.2l-0.2,0.2l-0.1,0.1l-0.1,0.1l-0.1,0.1L205,11l-0.1,0.1l-0.1,0.1l-0.2,0.1l-0.1,0.1
			l-0.1,0.1l-0.2,0.1l-0.1,0l-0.1,0.1l-0.1,0l-0.2,0.1l-0.1,0l-0.1,0l-0.1,0l-0.2,0.1l-0.1,0l-0.1,0l-0.1,0l-0.1,0l-0.1,0l-0.1,0
			l-0.1,0l0,0v0c-0.2,0-0.4,0-0.4,0h0c-1.5,0-2.7-1.3-2.7-2.8c0-1.6,1.2-2.8,2.7-2.8l0,0c0.1,0,1.8,0,3.2,1.8c0.3-0.5,0.6-1,0.8-1.4
			c-1.8-2-3.8-2-4.1-2c-2.3,0-4.2,2-4.2,4.4c0,2.4,1.9,4.4,4.2,4.4l0,0l0,0h0.1l0.4,0l0.1,0l0.1,0l0,0l0.2,0h0
			c1-0.2,2.6-0.8,3.9-2.8c0.2-0.3,0.4-0.6,0.6-1c0.8-1.6,1.7-2.4,2.5-2.9l0,0l0.1,0v0c0.9-0.5,1.5-0.5,1.6-0.5l0,0
			c1.5,0,2.7,1.3,2.7,2.8s-1.2,2.8-2.7,2.8c-0.1,0-1.6,0-3.1-1.8l-0.1,0.1c-0.2,0.5-0.5,0.9-0.8,1.3c1.7,1.9,3.6,2,3.9,2l0,0
			c2.3,0,4.2-2,4.2-4.4C216,7,214.1,5,211.8,5L211.8,5z"/>
	</g>
	<g sketch:type="MSLayerGroup">
		<path id="Facebook" sketch:type="MSShapeGroup" class="st1" d="M175.2,5.9h-3.1V4c0-0.7,0.5-0.9,0.9-0.9h2.2V0l-3,0
			c-3.4,0-4.1,2.3-4.1,3.8v2.1h-2v3.2h2v9.1h4.1V9.1h2.8L175.2,5.9L175.2,5.9z"/>
		<path id="Twitter" sketch:type="MSShapeGroup" class="st2" d="M162.1,3.8c-0.7,0.3-1.4,0.5-2.1,0.6c0.8-0.5,1.4-1.2,1.6-2.1
			c-0.7,0.4-1.5,0.8-2.4,0.9c-0.7-0.7-1.6-1.2-2.7-1.2c-2.1,0-3.7,1.7-3.7,3.8c0,0.3,0,0.6,0.1,0.9c-3.1-0.2-5.8-1.7-7.7-4
			c-0.3,0.6-0.5,1.2-0.5,1.9c0,1.3,0.7,2.5,1.7,3.2c-0.6,0-1.2-0.2-1.7-0.5v0c0,1.8,1.3,3.4,3,3.7c-0.3,0.1-0.6,0.1-1,0.1
			c-0.2,0-0.5,0-0.7-0.1c0.5,1.5,1.8,2.6,3.5,2.6c-1.3,1-2.9,1.6-4.6,1.6c-0.3,0-0.6,0-0.9-0.1c1.6,1.1,3.6,1.7,5.7,1.7
			c6.8,0,10.6-5.8,10.6-10.8l0-0.5C161,5.2,161.6,4.5,162.1,3.8L162.1,3.8z"/>
	</g>
	<g sketch:type="MSLayerGroup">
		<path sketch:type="MSShapeGroup" class="st3" d="M126,9.5c2.2,0,4.3,0.9,5.9,2.5c1.6,1.6,2.4,3.7,2.4,5.9h3.4
			c0-6.5-5.3-11.8-11.8-11.8L126,9.5L126,9.5z M126,3.4c7.9,0,14.4,6.5,14.4,14.5h3.4C143.8,8,135.8,0,126,0L126,3.4L126,3.4z
			 M130.8,15.5c0,1.3-1.1,2.4-2.4,2.4c-1.3,0-2.4-1.1-2.4-2.4s1.1-2.4,2.4-2.4S130.8,14.2,130.8,15.5L130.8,15.5z"/>
		<path sketch:type="MSShapeGroup" class="st3" d="M126,7.3c-0.1-0.6-0.3-1.2-0.5-1.7c-0.2-0.5-0.5-1.1-0.8-1.5
			c-0.3-0.5-0.7-0.9-1.1-1.3c-0.4-0.4-0.9-0.8-1.3-1.1c-0.5-0.3-1-0.6-1.5-0.8c-0.5-0.2-1.1-0.4-1.7-0.5c-0.6-0.1-1.2-0.2-1.8-0.2
			c-0.6,0-1.2,0.1-1.8,0.2c-0.6,0.1-1.2,0.3-1.7,0.5c-0.5,0.2-1.1,0.5-1.5,0.8c-0.5,0.3-0.9,0.7-1.3,1.1c-0.4,0.4-0.8,0.9-1.1,1.3
			c-0.3,0.5-0.6,1-0.8,1.5c-0.2,0.5-0.4,1.1-0.5,1.7c-0.1,0.6-0.2,1.2-0.2,1.8c0,0.6,0.1,1.2,0.2,1.8c0.1,0.6,0.3,1.2,0.5,1.7
			c0.2,0.5,0.5,1.1,0.8,1.5c0.3,0.5,0.7,0.9,1.1,1.3c0.4,0.4,0.9,0.8,1.3,1.1c0.5,0.3,1,0.6,1.5,0.8c0.5,0.2,1.1,0.4,1.7,0.5
			c0.6,0.1,1.2,0.2,1.8,0.2c0.6,0,1.2-0.1,1.8-0.2c0.6-0.1,1.2-0.3,1.7-0.5c0.5-0.2,1.1-0.5,1.5-0.8c0.5-0.3,0.9-0.7,1.3-1.1
			c0.4-0.4,0.8-0.9,1.1-1.3c0.3-0.5,0.6-1,0.8-1.5c0.2-0.5,0.4-1.1,0.5-1.7c0.1-0.6,0.2-1.2,0.2-1.8C126.2,8.5,126.1,7.8,126,7.3z
			 M124.8,9c-0.1,0-2.7-0.6-5.4-0.3l-0.2-0.4c-0.2-0.4-0.3-0.8-0.5-1.1c3.1-1.3,4.3-3,4.3-3.1C124.2,5.5,124.8,7.2,124.8,9L124.8,9z
			 M122.2,3.3c0,0-1.1,1.7-4.1,2.8c-1.3-2.4-2.8-4.4-2.9-4.5c0.6-0.1,1.2-0.2,1.8-0.2C119,1.3,120.8,2.1,122.2,3.3z M115.2,1.6
			L115.2,1.6L115.2,1.6L115.2,1.6L115.2,1.6z M113.8,2.1c0.1,0.1,1.5,2.1,2.9,4.5c-3.7,1-7,1-7.2,0.9C110,5.1,111.6,3.1,113.8,2.1z
			 M109.3,9.1l0-0.2c0.1,0,4,0.1,8-1.1c0.2,0.4,0.4,0.9,0.6,1.3l-0.3,0.1c-4.2,1.4-6.3,5.1-6.3,5.1l0,0
			C110.1,12.9,109.3,11.1,109.3,9.1L109.3,9.1z M117.1,16.8c-1.9,0-3.6-0.7-4.9-1.8l0.2,0.1c0,0,1.5-3.2,6.1-4.8l0.1,0
			c1.1,2.8,1.5,5.2,1.7,5.9C119.2,16.6,118.2,16.8,117.1,16.8z M121.4,15.5c-0.1-0.5-0.5-2.7-1.5-5.5c2.5-0.4,4.7,0.3,4.8,0.3
			C124.4,12.5,123.2,14.3,121.4,15.5L121.4,15.5z"/>
		<g transform="translate(90 5)" sketch:type="MSShapeGroup">
			<ellipse id="Oval" class="st3" cx="4" cy="4.4" rx="4" ry="4.4"/>
			<ellipse class="st3" cx="13.9" cy="4.4" rx="4" ry="4.4"/>
		</g>
		<path sketch:type="MSShapeGroup" class="st3" d="M81.9,0C76.6,0,74,3.5,74,6.4c0,1.8,0.7,3.3,2.3,3.9c0.3,0.1,0.5,0,0.6-0.3
			L77,9.3c0.1-0.3,0-0.3-0.2-0.6c-0.4-0.5-0.7-1.1-0.7-2c0-2.6,2.1-4.9,5.4-4.9c3,0,4.6,1.7,4.6,3.9c0,3-1.4,5.5-3.5,5.5
			c-1.2,0-2-0.9-1.7-2c0.3-1.3,1-2.7,1-3.7c0-0.8-0.5-1.5-1.5-1.5c-1.2,0-2.1,1.1-2.1,2.7c0,1,0.4,1.6,0.4,1.6s-1.2,4.8-1.4,5.6
			c-0.4,1.7-0.1,3.7,0,3.9c0,0.1,0.2,0.2,0.3,0.1c0.1-0.1,1.5-1.8,2-3.4c0.1-0.5,0.8-2.8,0.8-2.8c0.4,0.7,1.5,1.3,2.7,1.3
			c3.5,0,5.9-3,5.9-7.1C88.8,2.8,86.1,0,81.9,0L81.9,0z"/>
		<path id="Shape" sketch:type="MSShapeGroup" class="st3" d="M54,0v18h18V0H54z M60,15h-3V7h3V15z M58.5,6L58.5,6
			C57.6,6,57,5.3,57,4.5C57,3.6,57.6,3,58.5,3S60,3.6,60,4.5C60,5.3,59.4,6,58.5,6z M69,15h-2.6v-4.2c0-1.1-0.4-1.8-1.3-1.8
			c-0.7,0-1.2,0.5-1.3,0.9c-0.1,0.2-0.1,0.4-0.1,0.6V15H61c0,0,0-7.1,0-7.8h2.6v1.1C64,7.8,64.6,7,66,7c1.7,0,3,1.1,3,3.5
			C69,10.5,69,15,69,15z"/>
		<g sketch:type="MSShapeGroup">
			<path class="st3" d="M53.7,7.7H51V4.9c0-0.2-0.2-0.4-0.4-0.4h-0.8c-0.2,0-0.4,0.2-0.4,0.4v2.8h-2.7c-0.2,0-0.4,0.2-0.4,0.4v0.8
				c0,0.2,0.2,0.4,0.4,0.4h2.7v2.8c0,0.2,0.2,0.4,0.4,0.4h0.8c0.2,0,0.4-0.2,0.4-0.4V9.3h2.7c0.2,0,0.4-0.2,0.4-0.4V8.1
				C54.1,7.9,53.9,7.7,53.7,7.7z M44.6,10.2c-0.6-0.4-1.1-1-1.1-1.2c0-0.3,0-0.5,0.8-1.1c1-0.8,1.5-1.8,1.5-2.9c0-1-0.3-1.9-0.8-2.5
				h0.4c0.1,0,0.2,0,0.2-0.1l1.1-0.8c0.1-0.1,0.2-0.3,0.1-0.4s-0.2-0.3-0.4-0.3h-4.8c-0.5,0-1,0.1-1.6,0.3c-1.7,0.6-2.9,2.2-2.9,3.8
				c0,2.3,1.7,4,3.9,4C41,9.1,41,9.3,41,9.5c0,0.3,0.1,0.7,0.3,1h-0.1c-2.1,0-4,1.1-4.8,2.7c-0.2,0.4-0.3,0.9-0.3,1.3
				c0,0.4,0.1,0.8,0.3,1.2c0.5,0.9,1.4,1.5,2.8,1.9c0.7,0.2,1.4,0.3,2.2,0.3c0.7,0,1.3-0.1,1.9-0.3c1.9-0.6,3.1-2,3.1-3.7
				C46.5,12.2,46,11.2,44.6,10.2L44.6,10.2z M38.6,13.9c0-1.2,1.4-2.2,3-2.2h0c0.4,0,0.7,0.1,1,0.2l0.3,0.2c0.8,0.5,1.2,0.9,1.4,1.5
				c0,0.1,0,0.3,0,0.4c0,1.5-1,2.2-3.1,2.2C39.8,16.2,38.6,15.2,38.6,13.9L38.6,13.9z M40.1,2.8c0.3-0.3,0.6-0.5,1-0.5l0,0
				c1.1,0,2.1,1.3,2.2,2.7c0.1,0.8-0.1,1.6-0.5,2.1c-0.3,0.3-0.6,0.5-1,0.5h0c-1,0-2.1-1.3-2.2-2.8C39.5,4,39.7,3.3,40.1,2.8
				L40.1,2.8z"/>
		</g>
		<path sketch:type="MSShapeGroup" class="st3" d="M31.2,5.9h-3.1V4c0-0.7,0.5-0.9,0.9-0.9h2.2V0l-3,0C24.7,0,24,2.3,24,3.8v2.1h-2
			v3.2h2v9.1h4.1V9.1h2.8L31.2,5.9L31.2,5.9z"/>
		<path sketch:type="MSShapeGroup" class="st3" d="M18.1,3.8c-0.7,0.3-1.4,0.5-2.1,0.6c0.8-0.5,1.4-1.2,1.6-2.1
			c-0.7,0.4-1.5,0.8-2.4,0.9C14.6,2.5,13.6,2,12.5,2c-2.1,0-3.7,1.7-3.7,3.8c0,0.3,0,0.6,0.1,0.9C5.8,6.5,3.1,5,1.3,2.7
			C0.9,3.3,0.8,3.9,0.8,4.6c0,1.3,0.7,2.5,1.7,3.2c-0.6,0-1.2-0.2-1.7-0.5v0c0,1.8,1.3,3.4,3,3.7c-0.3,0.1-0.6,0.1-1,0.1
			c-0.2,0-0.5,0-0.7-0.1c0.5,1.5,1.8,2.6,3.5,2.6c-1.3,1-2.9,1.6-4.6,1.6c-0.3,0-0.6,0-0.9-0.1C1.6,16.4,3.6,17,5.7,17
			c6.8,0,10.6-5.8,10.6-10.8l0-0.5C17,5.2,17.6,4.5,18.1,3.8L18.1,3.8z"/>
		<path id="Shape_1_" sketch:type="MSShapeGroup" class="st4" d="M179.1,0v18h18V0H179.1z M185.1,15h-3V7h3V15z M183.6,6L183.6,6
			c-0.9,0-1.5-0.7-1.5-1.5c0-0.9,0.6-1.5,1.5-1.5s1.5,0.6,1.5,1.5C185.1,5.3,184.5,6,183.6,6z M194.1,15h-2.6v-4.2
			c0-1.1-0.4-1.8-1.3-1.8c-0.7,0-1.2,0.5-1.3,0.9c-0.1,0.2-0.1,0.4-0.1,0.6V15h-2.6c0,0,0-7.1,0-7.8h2.6v1.1c0.3-0.5,1-1.3,2.4-1.3
			c1.7,0,3,1.1,3,3.5C194.1,10.5,194.1,15,194.1,15z"/>
	</g>
</g>
</svg>
